<?xml version="1.0" standalone="no"?>
<!DOCTYPE svg PUBLIC "-//W3C//DTD SVG 20010904//EN"
 "http://www.w3.org/TR/2001/REC-SVG-20010904/DTD/svg10.dtd">
<svg version="1.0" xmlns="http://www.w3.org/2000/svg"
 width="512.000000pt" height="512.000000pt" viewBox="0 0 512.000000 512.000000"
 preserveAspectRatio="xMidYMid meet">
<metadata>
Created by potrace 1.16, written by Peter Selinger 2001-2019
</metadata>
<g transform="translate(0.000000,512.000000) scale(0.100000,-0.100000)"
fill="#ffffff" stroke="none">
<path d="M2240 5109 c-170 -20 -400 -66 -400 -81 0 -4 -7 -8 -15 -8 -21 0
-239 -71 -245 -79 -3 -4 -47 -24 -99 -45 -52 -21 -106 -46 -120 -58 -14 -11
-40 -26 -58 -33 -17 -7 -63 -34 -102 -59 -38 -25 -74 -46 -79 -46 -6 0 -23
-13 -40 -28 -16 -15 -47 -39 -68 -53 -103 -69 -318 -271 -425 -399 -69 -83
-161 -207 -178 -242 -8 -15 -22 -36 -32 -47 -10 -11 -34 -50 -54 -88 -19 -37
-40 -73 -45 -80 -13 -16 -80 -168 -80 -181 0 -6 -6 -17 -14 -24 -15 -16 -86
-221 -86 -250 0 -10 -4 -18 -9 -18 -9 0 -9 -1 -41 -155 -52 -250 -66 -648 -34
-925 16 -140 58 -355 73 -374 5 -6 21 -54 36 -106 15 -52 39 -122 55 -155 15
-33 43 -94 60 -135 18 -41 35 -77 39 -80 3 -3 23 -38 44 -79 21 -40 47 -82 56
-92 10 -11 24 -32 32 -47 35 -71 217 -297 325 -406 52 -53 235 -208 324 -276
18 -14 56 -38 84 -54 28 -16 53 -32 56 -36 3 -4 37 -24 75 -44 39 -20 77 -42
85 -50 8 -7 58 -31 110 -52 52 -20 96 -41 98 -45 2 -4 56 -24 120 -44 64 -20
125 -40 135 -46 29 -16 235 -57 367 -74 170 -21 576 -20 742 1 150 19 352 61
356 74 2 6 12 10 21 10 29 0 234 71 249 86 7 8 18 14 24 14 15 0 172 70 178
80 3 4 21 15 40 23 48 21 111 59 133 78 10 9 39 27 64 40 25 13 51 31 57 41 6
10 16 18 22 18 17 0 201 158 304 261 122 122 232 253 250 296 5 13 14 23 19
23 6 0 29 33 52 73 23 39 46 74 49 77 4 3 25 39 46 80 20 41 40 77 44 80 6 5
38 75 78 175 9 22 19 42 23 45 8 6 69 194 69 213 0 6 7 24 15 40 18 36 49 180
72 337 21 153 25 582 5 730 -16 122 -63 353 -72 360 -4 3 -10 19 -14 35 -13
56 -68 220 -76 225 -4 3 -15 25 -23 50 -19 55 -68 163 -77 170 -4 3 -23 38
-44 79 -21 41 -44 80 -52 89 -8 8 -26 35 -39 61 -13 26 -35 58 -49 72 -14 13
-26 29 -26 35 0 6 -18 30 -40 54 -22 24 -40 45 -40 48 0 22 -340 362 -362 362
-3 0 -24 18 -48 40 -24 22 -49 40 -57 40 -7 0 -16 7 -19 15 -4 9 -27 28 -53
42 -25 15 -71 44 -102 65 -31 21 -74 45 -95 54 -21 9 -48 24 -59 34 -11 9 -63
35 -115 56 -52 21 -97 41 -100 45 -6 8 -171 64 -220 74 -19 4 -37 11 -40 16
-9 14 -225 57 -370 73 -147 17 -538 20 -670 5z m575 -219 c110 -12 328 -50
335 -59 3 -4 57 -21 120 -39 63 -18 138 -44 165 -56 28 -13 84 -38 125 -56 41
-18 77 -35 80 -39 3 -4 38 -25 79 -47 41 -21 85 -49 98 -60 13 -12 37 -28 53
-36 16 -8 45 -27 62 -41 18 -15 62 -50 98 -79 91 -73 256 -235 281 -275 24
-39 19 -49 -52 -112 -87 -76 -210 -141 -319 -168 -36 -9 -70 -20 -75 -24 -6
-4 -67 -17 -135 -29 -271 -46 -345 -62 -372 -81 -15 -11 -28 -27 -28 -34 0
-13 56 -35 88 -35 7 0 51 -18 98 -40 47 -22 88 -40 91 -40 3 0 46 -26 96 -57
l91 -58 185 0 c112 0 210 6 246 13 84 18 185 52 185 62 0 5 20 16 44 25 25 10
73 41 107 70 48 41 65 50 74 41 18 -18 55 -106 55 -131 0 -50 -77 -112 -200
-164 -93 -38 -161 -51 -319 -59 -75 -4 -126 -11 -128 -18 -4 -11 65 -97 202
-252 99 -113 116 -120 247 -103 51 7 95 16 96 22 2 5 12 9 22 9 22 0 180 78
180 89 0 5 11 16 24 25 24 15 25 15 41 -35 21 -62 14 -107 -23 -144 -63 -63
-150 -83 -421 -93 -160 -7 -166 -8 -169 -29 -4 -28 120 -134 201 -171 31 -14
57 -29 57 -33 0 -22 209 -68 312 -69 74 0 78 -4 78 -75 0 -97 -16 -165 -48
-198 -52 -55 -73 -61 -254 -65 -93 -2 -168 -8 -168 -13 0 -14 90 -106 144
-148 29 -22 81 -51 117 -63 35 -13 74 -31 85 -41 l22 -19 -23 -71 c-12 -40
-31 -92 -43 -117 -11 -25 -33 -74 -48 -110 -15 -36 -30 -67 -34 -70 -4 -3 -24
-39 -45 -80 -20 -41 -48 -87 -61 -103 -12 -15 -35 -49 -50 -76 -16 -31 -37
-54 -55 -61 -25 -11 -37 -8 -106 26 -43 21 -80 42 -82 47 -4 10 -152 79 -158
73 -2 -2 7 -100 21 -217 27 -223 26 -247 -10 -308 -20 -33 -91 -78 -104 -65
-5 5 -18 101 -30 214 -22 224 -51 391 -75 436 -8 16 -15 36 -15 44 0 22 -49
171 -64 195 -7 11 -25 49 -39 85 -42 106 -88 180 -110 180 -7 0 -33 -21 -58
-47 -24 -27 -84 -85 -133 -131 -102 -96 -93 -56 -81 -348 6 -127 4 -211 -5
-280 -13 -105 -54 -284 -68 -293 -4 -3 -21 -39 -37 -80 -16 -41 -36 -83 -45
-95 -9 -11 -36 -52 -60 -91 -24 -38 -54 -78 -67 -88 -12 -10 -23 -23 -23 -29
0 -6 -30 -40 -66 -75 -68 -67 -119 -93 -180 -93 l-34 0 17 28 c10 15 33 43 51
62 19 19 40 47 48 62 8 15 21 31 31 36 10 6 14 16 10 26 -8 21 -78 21 -202 1
-150 -25 -466 -30 -630 -11 -144 17 -256 36 -265 46 -3 3 -59 20 -125 39 -66
18 -134 42 -151 51 -18 10 -71 34 -120 54 -48 20 -90 40 -93 44 -3 5 -37 26
-76 46 -38 20 -79 45 -90 56 -11 10 -33 25 -48 33 -29 15 -44 26 -171 130
-200 164 -382 374 -492 569 -68 120 -141 287 -170 388 -15 52 -30 97 -34 100
-8 6 -33 131 -56 280 -20 127 -22 434 -5 565 17 131 53 315 62 315 4 0 10 15
14 33 11 56 68 231 80 247 7 8 29 59 50 113 21 53 41 97 45 97 4 0 26 38 49
85 23 47 45 85 49 85 4 0 16 17 27 38 61 118 314 397 470 519 44 35 92 74 107
87 15 14 43 32 62 41 19 9 46 27 59 38 13 12 57 40 98 61 41 22 76 43 79 47 7
9 140 69 155 69 7 0 23 8 36 18 23 18 189 75 257 88 17 4 32 10 32 14 0 8 205
47 310 59 107 12 439 13 545 1z"/>
<path d="M2686 4408 c-9 -12 -16 -28 -16 -34 0 -6 -7 -18 -16 -25 -9 -7 -30
-37 -46 -66 -39 -69 -256 -290 -343 -348 -21 -15 -47 -38 -57 -51 -11 -13 -24
-24 -29 -24 -10 0 -78 -47 -89 -61 -3 -4 -34 -25 -70 -48 -35 -23 -67 -46 -70
-50 -3 -5 -33 -25 -67 -45 -35 -20 -63 -41 -63 -47 0 -5 -9 -13 -19 -17 -36
-13 -194 -157 -283 -256 -48 -55 -88 -103 -88 -107 0 -21 -380 -401 -423 -424
-21 -11 -43 -25 -48 -32 -17 -19 7 -50 48 -64 74 -23 77 -39 25 -152 -16 -34
-42 -91 -58 -127 -15 -36 -33 -70 -40 -77 -6 -6 -24 -37 -39 -68 -37 -72 -94
-125 -136 -125 -24 0 -42 11 -75 44 -25 24 -44 53 -44 65 0 11 -6 21 -14 21
-16 0 -44 -107 -53 -202 -3 -32 -10 -58 -14 -58 -5 0 -9 -43 -9 -95 0 -52 4
-95 9 -95 4 0 11 -28 14 -62 8 -88 27 -168 39 -168 6 0 23 11 40 25 16 14 36
25 43 25 12 0 115 -143 115 -159 0 -4 27 -30 60 -59 54 -48 167 -112 198 -112
6 0 12 -4 12 -9 0 -14 94 -31 210 -38 106 -6 200 1 200 16 0 4 -37 34 -83 66
-45 32 -104 81 -132 109 -49 50 -50 51 -50 114 0 36 5 66 11 70 7 4 19 24 27
44 22 53 99 126 163 154 30 13 61 24 69 24 8 0 15 5 15 10 0 12 152 14 165 1
6 -4 48 -18 95 -31 47 -12 93 -24 103 -27 14 -5 17 1 17 37 0 32 6 48 23 62
21 19 32 20 240 13 193 -7 217 -6 217 8 0 9 -4 18 -9 22 -5 3 -22 31 -36 63
-21 44 -26 67 -22 102 4 39 12 51 63 98 31 29 81 67 111 85 57 34 78 71 51 91
-8 6 -22 23 -32 38 -17 26 -17 28 4 65 29 51 50 65 145 97 43 15 82 30 85 35
6 9 190 67 245 77 22 4 43 12 47 18 10 15 396 15 406 0 4 -6 22 -15 41 -19 43
-9 174 -63 181 -74 3 -5 43 -28 90 -50 46 -23 87 -45 90 -50 3 -4 41 -26 85
-47 44 -21 85 -44 90 -51 6 -6 48 -28 95 -49 47 -20 86 -40 88 -45 2 -5 47
-23 100 -41 85 -27 111 -32 202 -31 88 0 118 4 185 27 97 33 112 44 88 61 -10
7 -38 16 -63 20 -81 13 -231 58 -257 77 -6 5 -46 27 -89 49 -43 21 -80 42 -83
47 -8 10 -89 72 -95 72 -5 0 -108 102 -167 166 -83 90 -75 115 29 95 125 -24
132 -24 132 -8 0 8 -7 20 -15 27 -8 7 -15 18 -15 24 0 6 -18 29 -39 51 -137
139 -185 185 -234 228 -31 26 -59 47 -63 47 -4 0 -25 15 -48 33 -46 37 -142
97 -155 97 -4 0 -19 8 -32 18 -46 34 -278 118 -381 138 -161 31 -558 30 -717
-2 l-33 -7 45 59 c24 32 51 73 60 90 9 17 22 34 30 37 8 3 22 22 32 44 10 21
33 61 51 89 73 116 112 294 94 427 -19 133 -33 159 -64 115z m-936 -1555 c0
-43 -150 -195 -226 -230 -53 -24 -124 -41 -124 -30 0 20 30 64 71 105 54 54
82 73 159 109 30 15 57 29 60 33 11 16 60 26 60 13z"/>
<path d="M4008 4281 c-35 -50 -150 -78 -353 -87 -82 -4 -154 -10 -160 -14 -5
-4 -73 -11 -150 -14 -195 -10 -315 -38 -376 -87 -79 -63 -99 -82 -99 -93 0 -7
-9 -22 -20 -34 -30 -31 -60 -117 -60 -167 l0 -45 43 6 c23 3 48 8 56 10 8 3
95 9 193 14 98 6 186 14 196 19 9 5 53 14 97 21 103 15 285 60 285 70 0 5 15
12 33 15 97 21 227 94 289 164 62 67 81 123 71 198 -6 46 -23 55 -45 24z"/>
<path d="M3023 2673 c-24 -2 -43 -8 -43 -14 0 -5 -9 -9 -21 -9 -11 0 -52 -9
-90 -21 -51 -16 -69 -25 -69 -39 0 -14 12 -18 61 -24 34 -3 82 -6 105 -6 24 0
44 -4 44 -9 0 -5 25 -12 55 -16 87 -10 237 -58 264 -83 7 -7 35 -24 61 -37 26
-13 60 -34 76 -47 44 -36 194 -189 194 -198 0 -5 16 -26 35 -47 19 -21 35 -43
35 -48 0 -6 14 -27 30 -47 36 -44 100 -137 100 -147 0 -3 12 -17 26 -30 14
-13 34 -41 44 -61 10 -20 26 -43 36 -51 9 -7 28 -32 42 -54 31 -48 141 -165
156 -165 6 0 16 -8 23 -18 16 -27 117 -92 142 -92 39 0 32 21 -29 86 -33 36
-73 84 -88 107 -15 23 -30 44 -33 47 -11 9 -41 72 -36 76 6 7 151 -19 158 -28
3 -4 56 -9 119 -10 84 -2 114 0 117 10 3 6 10 12 17 12 7 0 21 6 32 14 18 14
17 17 -33 63 -28 26 -80 73 -114 103 -35 30 -84 74 -109 97 -47 42 -113 101
-216 189 -32 28 -86 75 -119 104 -33 29 -71 59 -85 68 -14 9 -30 21 -35 27 -6
7 -37 29 -70 50 -33 21 -62 42 -65 46 -3 4 -43 26 -90 50 -47 24 -87 46 -90
50 -8 10 -185 68 -233 75 -23 4 -45 11 -48 15 -6 10 -194 19 -256 12z"/>
<path d="M2796 2437 c-46 -14 -56 -31 -27 -46 11 -6 25 -17 33 -23 7 -7 39
-30 70 -51 73 -50 182 -159 216 -217 14 -25 29 -47 33 -50 20 -15 42 -112 42
-190 0 -79 -24 -207 -41 -220 -11 -8 -33 -62 -28 -67 9 -10 68 9 86 27 11 11
34 27 52 36 55 28 190 136 244 194 103 111 128 192 81 261 -31 44 -206 219
-220 219 -3 0 -26 14 -50 30 -25 17 -50 30 -56 30 -6 0 -11 4 -11 10 0 5 -37
21 -82 35 -99 32 -277 43 -342 22z"/>
</g>
</svg>
