<?xml version="1.0" encoding="utf-8"?>
<!-- Generator: Adobe Illustrator 19.2.1, SVG Export Plug-In . SVG Version: 6.00 Build 0)  -->
<svg version="1.1" id="layer" xmlns="http://www.w3.org/2000/svg" xmlns:xlink="http://www.w3.org/1999/xlink" x="0px" y="0px"
	 viewBox="0 0 652 652" style="enable-background:new 0 0 652 652;" xml:space="preserve">
<style type="text/css">
	.st0{fill:#00467E;}
</style>
<g>
	<path class="st0" d="M376.6,310.5c-5,0-12.2,0.6-16.1,1.4l-1,0.2v118.4h9.1v-46c1.8,0.1,4.5,0.3,7.5,0.3c29.7,0,46.7-14,46.7-38.3
		C422.9,323.3,406.4,310.5,376.6,310.5 M376.2,376.5c-3.1,0-5.5-0.1-7.5-0.3v-57.1c2.2-0.2,5.5-0.3,7.9-0.3c24.2,0,37,9.6,37,27.7
		C413.6,366.4,401,376.5,376.2,376.5 M539.3,419l1.9-1.1v9.1l-0.6,0.4c-4.7,2.8-10.1,4.3-15.9,4.3c-13.6,0-20.8-7.6-20.8-21.9v-58.9
		h-13.1v-7.9H504v-19.5h8.9v19.5h26.4v7.9h-26.4v57.7c0,13.2,6,15,11.8,15C529.9,423.5,533.6,422.4,539.3,419 M620.9,370.7v59.8
		h-8.9v-58.3c0-15.5-8.1-22.4-26.3-22.4c-9.7,0-18.2,2.2-24.7,4.2v76.5H552V296h8.9v49.7c8.9-2.9,17.4-4.4,24.7-4.4
		C609,341.3,620.9,351.2,620.9,370.7 M456.2,341.3c-7.6,0-15.2,1.6-21.3,4.5v8.8c6.7-3.4,13.5-5,21.1-5c11.7,0,18.1,6.5,18.1,18.3
		v11.4h-8.7c-36,0-43.6,14.4-43.6,26.4c0,16.7,14.5,26.2,39.7,26.2c6.5,0,14.2-1.1,20.7-3l0.9-0.3v-61.7
		C483,350.3,473.8,341.3,456.2,341.3 M474.1,422.8c-4,0.9-7.6,1.3-12.6,1.3c-9.3,0-30.8-1.8-30.8-18.3c0-12.3,11.4-18.3,34.9-18.3
		h8.5V422.8z M112.4,346.9c-7.4-7.4-18.4-12.1-31.6-12.1c-20.9,0-34.6,15.4-34.6,37.7c0,22.8,14.8,37.7,35.5,37.7
		c13.3,0,22.8-3.9,32.6-11.9v25.6c-10.7,6.4-21.9,8.6-33.6,8.6c-36.3,0-59.9-24.6-59.9-59.9c0-35.5,24.6-59.9,59.9-59.9
		c11.7,0,22.3,2.3,31.6,7.8V346.9z M170.8,373.4c0-8.4-7-11.9-15.6-11.9c-10.3,0-18.3,3.1-25.2,7.2v-20.3c7.8-4.5,18.2-7,29.3-7
		c19.9,0,34.8,7.8,34.8,31v56.2c-8.4,2-21.7,3.5-32.8,3.5c-22.1,0-39-6.6-39-26.7c0-18.2,14.6-26.8,39-26.8h9.6V373.4z M170.8,393.8
		H163c-10.9,0-17.4,3.1-17.4,10.5S151.7,415,161,415c2.5,0,6.6-0.2,9.8-1V393.8z M233.1,430.5h-23.4V350c9.6-5.1,22.1-8,34.8-8
		c6.8,0,11.7,0.6,18.2,2.3V367c-5.7-2.3-11.9-2.9-17.6-2.9c-4.3,0-8.2,0.8-11.9,2V430.5z M285.8,393.4v0.4
		c1.8,12.3,13.9,18.5,25.6,18.5c11.7,0,20.5-2.7,29.1-7.8v19.9c-8,5.7-19.7,8-31.4,8c-28.3,0-46.1-17.4-46.1-44.5
		c0-28.7,18.2-46.5,42.6-46.5c27.1,0,37.7,18,37.7,41v10.9H285.8z M321.3,379.3c-0.2-10.7-5.3-18.5-16.4-18.5
		c-10.2,0-16.8,7.2-18.9,18.5H321.3z"/>
	<path class="st0" d="M32.7,296v-6.5c6.4-2.3,11.1-8.1,11.1-21.2v-57.8h9.9v57.1C53.8,285,43.5,294.8,32.7,296 M90.5,272.2
		c8.4,0,15.5-1.7,20.1-4.3v-38.9c0-14.8-9.9-19.7-21.2-19.7c-8.3,0-15.1,2.6-18.6,4.5l2.4,5.8c3.4-1.7,8.8-3.8,14.6-3.8
		c7.8,0,13.4,2.7,13.4,12v3.7c-18.8,1.9-33.9,6.6-33.9,22.7C67.4,265.4,74.7,272.2,90.5,272.2 M101.3,264.5c-2.5,1.4-6.2,2-10,2
		c-9,0-14.4-3.6-14.4-12.4c0-12.2,9.1-15.5,24.4-17.4V264.5z M170.7,271.1v-43.7c0-8.7-5-18-21.8-18c-9.7,0-16.8,1.7-22.2,4.3v57.4
		h9.9v-53.2c3.2-1.3,5.8-2.2,11.5-2.2c10.4,0,12.7,6.2,12.7,11.8v43.5H170.7z M198.5,272c12.4,0,20.4-8.5,20.4-17.7
		c0-7-2.9-13.3-14.7-17.8c-5.9-2.2-10.1-5.1-10.1-10.9c0-5.2,3.5-9.5,10.1-9.5c4.7,0,8.3,2,10.1,3.3l2.6-5.9
		c-3.1-2.1-8-4.2-14.2-4.2c-11,0-18.1,7.7-18.1,16.7c0,6.3,2.4,12.6,14.2,17c6.6,2.5,10,5.3,10,11.6c0,5.8-4.5,10.4-11.3,10.4
		c-5.4,0-9.7-1.8-11.8-3.6l-2.7,6.5C186.2,270.3,191.9,272,198.5,272 M242.8,272c12.4,0,20.4-8.5,20.4-17.7c0-7-2.9-13.3-14.7-17.8
		c-5.9-2.2-10.1-5.1-10.1-10.9c0-5.2,3.5-9.5,10.1-9.5c4.7,0,8.3,2,10.1,3.3l2.6-5.9c-3.1-2.1-8-4.2-14.2-4.2
		c-11,0-18.1,7.7-18.1,16.7c0,6.3,2.4,12.6,14.2,17c6.6,2.5,10,5.3,10,11.6c0,5.8-4.5,10.4-11.3,10.4c-5.4,0-9.7-1.8-11.8-3.6
		l-2.7,6.5C230.6,270.3,236.3,272,242.8,272 M321.7,239.1c0.2-20.2-8.6-29.7-23.1-29.7c-14.3,0-24.4,10.7-24.4,31.3
		c0,21.6,11.1,31.6,27,31.6c8.2,0,14.6-1.9,18.4-4.2l-2.6-6.5c-3.2,1.8-8.1,3.5-15,3.5c-10.9,0-17.4-6.7-18.5-20.5L321.7,239.1z
		 M298.2,215.8c8.7,0,14,5.4,14,19.1l-29.1,4.4C282.9,222.9,289.4,215.8,298.2,215.8 M379.3,271.1v-43.7c0-8.7-5-18-21.8-18
		c-9.7,0-16.8,1.7-22.2,4.3v57.4h9.9v-53.2c3.2-1.3,5.9-2.2,11.5-2.2c10.4,0,12.7,6.2,12.7,11.8v43.5H379.3z"/>
</g>
</svg>
