<?xml version="1.0" encoding="UTF-8" standalone="no" ?>
<!DOCTYPE svg PUBLIC "-//W3C//DTD SVG 1.1//EN" "http://www.w3.org/Graphics/SVG/1.1/DTD/svg11.dtd">
<svg xmlns="http://www.w3.org/2000/svg" xmlns:xlink="http://www.w3.org/1999/xlink" version="1.1" width="640" height="640" viewBox="0 0 500 500" xml:space="preserve">
<desc>Created with Fabric.js 4.6.0</desc>
<defs>
</defs>
<g transform="matrix(0.56 0 0 0.56 250 250)" id="_jFz7LH_OpzvZtiqBSST5"  >
<g style="" vector-effect="non-scaling-stroke"   >
		<g transform="matrix(0.13 0 0 -0.13 -0.4 0.1)" id="DC1Xxt5Db2aD349VpbTlG"  >
<path style="stroke: none; stroke-width: 1; stroke-dasharray: none; stroke-linecap: butt; stroke-dashoffset: 0; stroke-linejoin: miter; stroke-miterlimit: 4; fill: rgb(0,0,0); fill-rule: nonzero; opacity: 1;" vector-effect="non-scaling-stroke"  transform=" translate(-2557.01, -2559.21)" d="M 2240 5109 C 2070 5089 1840 5043 1840 5028 C 1840 5024 1833 5020 1825 5020 C 1804 5020 1586 4949 1580 4941 C 1577 4937 1533 4917 1481 4896 C 1429 4875 1375 4850 1361 4838 C 1347 4827 1321 4812 1303 4805 C 1286 4798 1240 4771 1201 4746 C 1163 4721 1127 4700 1122 4700 C 1116 4700 1099 4687 1082 4672 C 1066 4657 1035 4633 1014 4619 C 911 4550 696 4348 589 4220 C 520 4137 428 4013 411 3978 C 403 3963 389 3942 379 3931 C 369 3920 345 3881 325 3843 C 306 3806 285 3770 280 3763 C 267 3747 200 3595 200 3582 C 200 3576 194 3565 186 3558 C 171 3542 100 3337 100 3308 C 100 3298 96 3290 91 3290 C 82 3290 82 3289 50 3135 C -2 2885 -16 2487 16 2210 C 32 2070 74 1855 89 1836 C 94 1830 110 1782 125 1730 C 140 1678 164 1608 180 1575 C 195 1542 223 1481 240 1440 C 258 1399 275 1363 279 1360 C 282 1357 302 1322 323 1281 C 344 1241 370 1199 379 1189 C 389 1178 403 1157 411 1142 C 446 1071 628 845 736 736 C 788 683 971 528 1060 460 C 1078 446 1116 422 1144 406 C 1172 390 1197 374 1200 370 C 1203 366 1237 346 1275 326 C 1314 306 1352 284 1360 276 C 1368 269 1418 245 1470 224 C 1522 204 1566 183 1568 179 C 1570 175 1624 155 1688 135 C 1752 115 1813 95 1823 89 C 1852 73 2058 32 2190 15 C 2360 -6 2766 -5 2932 16 C 3082 35 3284 77 3288 90 C 3290 96 3300 100 3309 100 C 3338 100 3543 171 3558 186 C 3565 194 3576 200 3582 200 C 3597 200 3754 270 3760 280 C 3763 284 3781 295 3800 303 C 3848 324 3911 362 3933 381 C 3943 390 3972 408 3997 421 C 4022 434 4048 452 4054 462 C 4060 472 4070 480 4076 480 C 4093 480 4277 638 4380 741 C 4502 863 4612 994 4630 1037 C 4635 1050 4644 1060 4649 1060 C 4655 1060 4678 1093 4701 1133 C 4724 1172 4747 1207 4750 1210 C 4754 1213 4775 1249 4796 1290 C 4816 1331 4836 1367 4840 1370 C 4846 1375 4878 1445 4918 1545 C 4927 1567 4937 1587 4941 1590 C 4949 1596 5010 1784 5010 1803 C 5010 1809 5017 1827 5025 1843 C 5043 1879 5074 2023 5097 2180 C 5118 2333 5122 2762 5102 2910 C 5086 3032 5039 3263 5030 3270 C 5026 3273 5020 3289 5016 3305 C 5003 3361 4948 3525 4940 3530 C 4936 3533 4925 3555 4917 3580 C 4898 3635 4849 3743 4840 3750 C 4836 3753 4817 3788 4796 3829 C 4775 3870 4752 3909 4744 3918 C 4736 3926 4718 3953 4705 3979 C 4692 4005 4670 4037 4656 4051 C 4642 4064 4630 4080 4630 4086 C 4630 4092 4612 4116 4590 4140 C 4568 4164 4550 4185 4550 4188 C 4550 4210 4210 4550 4188 4550 C 4185 4550 4164 4568 4140 4590 C 4116 4612 4091 4630 4083 4630 C 4076 4630 4067 4637 4064 4645 C 4060 4654 4037 4673 4011 4687 C 3986 4702 3940 4731 3909 4752 C 3878 4773 3835 4797 3814 4806 C 3793 4815 3766 4830 3755 4840 C 3744 4849 3692 4875 3640 4896 C 3588 4917 3543 4937 3540 4941 C 3534 4949 3369 5005 3320 5015 C 3301 5019 3283 5026 3280 5031 C 3271 5045 3055 5088 2910 5104 C 2763 5121 2372 5124 2240 5109 z M 2815 4890 C 2925 4878 3143 4840 3150 4831 C 3153 4827 3207 4810 3270 4792 C 3333 4774 3408 4748 3435 4736 C 3463 4723 3519 4698 3560 4680 C 3601 4662 3637 4645 3640 4641 C 3643 4637 3678 4616 3719 4594 C 3760 4573 3804 4545 3817 4534 C 3830 4522 3854 4506 3870 4498 C 3886 4490 3915 4471 3932 4457 C 3950 4442 3994 4407 4030 4378 C 4121 4305 4286 4143 4311 4103 C 4335 4064 4330 4054 4259 3991 C 4172 3915 4049 3850 3940 3823 C 3904 3814 3870 3803 3865 3799 C 3859 3795 3798 3782 3730 3770 C 3459 3724 3385 3708 3358 3689 C 3343 3678 3330 3662 3330 3655 C 3330 3642 3386 3620 3418 3620 C 3425 3620 3469 3602 3516 3580 C 3563 3558 3604 3540 3607 3540 C 3610 3540 3653 3514 3703 3483 L 3794 3425 L 3979 3425 C 4091 3425 4189 3431 4225 3438 C 4309 3456 4410 3490 4410 3500 C 4410 3505 4430 3516 4454 3525 C 4479 3535 4527 3566 4561 3595 C 4609 3636 4626 3645 4635 3636 C 4653 3618 4690 3530 4690 3505 C 4690 3455 4613 3393 4490 3341 C 4397 3303 4329 3290 4171 3282 C 4096 3278 4045 3271 4043 3264 C 4039 3253 4108 3167 4245 3012 C 4344 2899 4361 2892 4492 2909 C 4543 2916 4587 2925 4588 2931 C 4590 2936 4600 2940 4610 2940 C 4632 2940 4790 3018 4790 3029 C 4790 3034 4801 3045 4814 3054 C 4838 3069 4839 3069 4855 3019 C 4876 2957 4869 2912 4832 2875 C 4769 2812 4682 2792 4411 2782 C 4251 2775 4245 2774 4242 2753 C 4238 2725 4362 2619 4443 2582 C 4474 2568 4500 2553 4500 2549 C 4500 2527 4709 2481 4812 2480 C 4886 2480 4890 2476 4890 2405 C 4890 2308 4874 2240 4842 2207 C 4790 2152 4769 2146 4588 2142 C 4495 2140 4420 2134 4420 2129 C 4420 2115 4510 2023 4564 1981 C 4593 1959 4645 1930 4681 1918 C 4716 1905 4755 1887 4766 1877 L 4788 1858 L 4765 1787 C 4753 1747 4734 1695 4722 1670 C 4711 1645 4689 1596 4674 1560 C 4659 1524 4644 1493 4640 1490 C 4636 1487 4616 1451 4595 1410 C 4575 1369 4547 1323 4534 1307 C 4522 1292 4499 1258 4484 1231 C 4468 1200 4447 1177 4429 1170 C 4404 1159 4392 1162 4323 1196 C 4280 1217 4243 1238 4241 1243 C 4237 1253 4089 1322 4083 1316 C 4081 1314 4090 1216 4104 1099 C 4131 876 4130 852 4094 791 C 4074 758 4003 713 3990 726 C 3985 731 3972 827 3960 940 C 3938 1164 3909 1331 3885 1376 C 3877 1392 3870 1412 3870 1420 C 3870 1442 3821 1591 3806 1615 C 3799 1626 3781 1664 3767 1700 C 3725 1806 3679 1880 3657 1880 C 3650 1880 3624 1859 3599 1833 C 3575 1806 3515 1748 3466 1702 C 3364 1606 3373 1646 3385 1354 C 3391 1227 3389 1143 3380 1074 C 3367 969 3326 790 3312 781 C 3308 778 3291 742 3275 701 C 3259 660 3239 618 3230 606 C 3221 595 3194 554 3170 515 C 3146 477 3116 437 3103 427 C 3091 417 3080 404 3080 398 C 3080 392 3050 358 3014 323 C 2946 256 2895 230 2834 230 L 2800 230 L 2817 258 C 2827 273 2850 301 2868 320 C 2887 339 2908 367 2916 382 C 2924 397 2937 413 2947 418 C 2957 424 2961 434 2957 444 C 2949 465 2879 465 2755 445 C 2605 420 2289 415 2125 434 C 1981 451 1869 470 1860 480 C 1857 483 1801 500 1735 519 C 1669 537 1601 561 1584 570 C 1566 580 1513 604 1464 624 C 1416 644 1374 664 1371 668 C 1368 673 1334 694 1295 714 C 1257 734 1216 759 1205 770 C 1194 780 1172 795 1157 803 C 1128 818 1113 829 986 933 C 786 1097 604 1307 494 1502 C 426 1622 353 1789 324 1890 C 309 1942 294 1987 290 1990 C 282 1996 257 2121 234 2270 C 214 2397 212 2704 229 2835 C 246 2966 282 3150 291 3150 C 295 3150 301 3165 305 3183 C 316 3239 373 3414 385 3430 C 392 3438 414 3489 435 3543 C 456 3596 476 3640 480 3640 C 484 3640 506 3678 529 3725 C 552 3772 574 3810 578 3810 C 582 3810 594 3827 605 3848 C 666 3966 919 4245 1075 4367 C 1119 4402 1167 4441 1182 4454 C 1197 4468 1225 4486 1244 4495 C 1263 4504 1290 4522 1303 4533 C 1316 4545 1360 4573 1401 4594 C 1442 4616 1477 4637 1480 4641 C 1487 4650 1620 4710 1635 4710 C 1642 4710 1658 4718 1671 4728 C 1694 4746 1860 4803 1928 4816 C 1945 4820 1960 4826 1960 4830 C 1960 4838 2165 4877 2270 4889 C 2377 4901 2709 4902 2815 4890 z" stroke-linecap="round" />
</g>
		<g transform="matrix(0.13 0 0 -0.13 13.54 -39.24)" id="nfLvbhTIOfhM1tmIY4SIW"  >
<path style="stroke: none; stroke-width: 1; stroke-dasharray: none; stroke-linecap: butt; stroke-dashoffset: 0; stroke-linejoin: miter; stroke-miterlimit: 4; fill: rgb(0,0,0); fill-rule: nonzero; opacity: 1;" vector-effect="non-scaling-stroke"  transform=" translate(-2661.53, -2854.29)" d="M 2686 4408 C 2677 4396 2670 4380 2670 4374 C 2670 4368 2663 4356 2654 4349 C 2645 4342 2624 4312 2608 4283 C 2569 4214 2352 3993 2265 3935 C 2244 3920 2218 3897 2208 3884 C 2197 3871 2184 3860 2179 3860 C 2169 3860 2101 3813 2090 3799 C 2087 3795 2056 3774 2020 3751 C 1985 3728 1953 3705 1950 3701 C 1947 3696 1917 3676 1883 3656 C 1848 3636 1820 3615 1820 3609 C 1820 3604 1811 3596 1801 3592 C 1765 3579 1607 3435 1518 3336 C 1470 3281 1430 3233 1430 3229 C 1430 3208 1050 2828 1007 2805 C 986 2794 964 2780 959 2773 C 942 2754 966 2723 1007 2709 C 1081 2686 1084 2670 1032 2557 C 1016 2523 990 2466 974 2430 C 959 2394 941 2360 934 2353 C 928 2347 910 2316 895 2285 C 858 2213 801 2160 759 2160 C 735 2160 717 2171 684 2204 C 659 2228 640 2257 640 2269 C 640 2280 634 2290 626 2290 C 610 2290 582 2183 573 2088 C 570 2056 563 2030 559 2030 C 554 2030 550 1987 550 1935 C 550 1883 554 1840 559 1840 C 563 1840 570 1812 573 1778 C 581 1690 600 1610 612 1610 C 618 1610 635 1621 652 1635 C 668 1649 688 1660 695 1660 C 707 1660 810 1517 810 1501 C 810 1497 837 1471 870 1442 C 924 1394 1037 1330 1068 1330 C 1074 1330 1080 1326 1080 1321 C 1080 1307 1174 1290 1290 1283 C 1396 1277 1490 1284 1490 1299 C 1490 1303 1453 1333 1407 1365 C 1362 1397 1303 1446 1275 1474 C 1226 1524 1225 1525 1225 1588 C 1225 1624 1230 1654 1236 1658 C 1243 1662 1255 1682 1263 1702 C 1285 1755 1362 1828 1426 1856 C 1456 1869 1487 1880 1495 1880 C 1503 1880 1510 1885 1510 1890 C 1510 1902 1662 1904 1675 1891 C 1681 1887 1723 1873 1770 1860 C 1817 1848 1863 1836 1873 1833 C 1887 1828 1890 1834 1890 1870 C 1890 1902 1896 1918 1913 1932 C 1934 1951 1945 1952 2153 1945 C 2346 1938 2370 1939 2370 1953 C 2370 1962 2366 1971 2361 1975 C 2356 1978 2339 2006 2325 2038 C 2304 2082 2299 2105 2303 2140 C 2307 2179 2315 2191 2366 2238 C 2397 2267 2447 2305 2477 2323 C 2534 2357 2555 2394 2528 2414 C 2520 2420 2506 2437 2496 2452 C 2479 2478 2479 2480 2500 2517 C 2529 2568 2550 2582 2645 2614 C 2688 2629 2727 2644 2730 2649 C 2736 2658 2920 2716 2975 2726 C 2997 2730 3018 2738 3022 2744 C 3032 2759 3418 2759 3428 2744 C 3432 2738 3450 2729 3469 2725 C 3512 2716 3643 2662 3650 2651 C 3653 2646 3693 2623 3740 2601 C 3786 2578 3827 2556 3830 2551 C 3833 2547 3871 2525 3915 2504 C 3959 2483 4000 2460 4005 2453 C 4011 2447 4053 2425 4100 2404 C 4147 2384 4186 2364 4188 2359 C 4190 2354 4235 2336 4288 2318 C 4373 2291 4399 2286 4490 2287 C 4578 2287 4608 2291 4675 2314 C 4772 2347 4787 2358 4763 2375 C 4753 2382 4725 2391 4700 2395 C 4619 2408 4469 2453 4443 2472 C 4437 2477 4397 2499 4354 2521 C 4311 2542 4274 2563 4271 2568 C 4263 2578 4182 2640 4176 2640 C 4171 2640 4068 2742 4009 2806 C 3926 2896 3934 2921 4038 2901 C 4163 2877 4170 2877 4170 2893 C 4170 2901 4163 2913 4155 2920 C 4147 2927 4140 2938 4140 2944 C 4140 2950 4122 2973 4101 2995 C 3964 3134 3916 3180 3867 3223 C 3836 3249 3808 3270 3804 3270 C 3800 3270 3779 3285 3756 3303 C 3710 3340 3614 3400 3601 3400 C 3597 3400 3582 3408 3569 3418 C 3523 3452 3291 3536 3188 3556 C 3027 3587 2630 3586 2471 3554 L 2438 3547 L 2483 3606 C 2507 3638 2534 3679 2543 3696 C 2552 3713 2565 3730 2573 3733 C 2581 3736 2595 3755 2605 3777 C 2615 3798 2638 3838 2656 3866 C 2729 3982 2768 4160 2750 4293 C 2731 4426 2717 4452 2686 4408 z M 1750 2853 C 1750 2810 1600 2658 1524 2623 C 1471 2599 1400 2582 1400 2593 C 1400 2613 1430 2657 1471 2698 C 1525 2752 1553 2771 1630 2807 C 1660 2822 1687 2836 1690 2840 C 1701 2856 1750 2866 1750 2853 z" stroke-linecap="round" />
</g>
		<g transform="matrix(0.13 0 0 -0.13 115.03 -194.61)" id="ftUF4JnIycPLePcH8kRd1"  >
<path style="stroke: none; stroke-width: 1; stroke-dasharray: none; stroke-linecap: butt; stroke-dashoffset: 0; stroke-linejoin: miter; stroke-miterlimit: 4; fill: rgb(0,0,0); fill-rule: nonzero; opacity: 1;" vector-effect="non-scaling-stroke"  transform=" translate(-3422.76, -4019.6)" d="M 4008 4281 C 3973 4231 3858 4203 3655 4194 C 3573 4190 3501 4184 3495 4180 C 3490 4176 3422 4169 3345 4166 C 3150 4156 3030 4128 2969 4079 C 2890 4016 2870 3997 2870 3986 C 2870 3979 2861 3964 2850 3952 C 2820 3921 2790 3835 2790 3785 L 2790 3740 L 2833 3746 C 2856 3749 2881 3754 2889 3756 C 2897 3759 2984 3765 3082 3770 C 3180 3776 3268 3784 3278 3789 C 3287 3794 3331 3803 3375 3810 C 3478 3825 3660 3870 3660 3880 C 3660 3885 3675 3892 3693 3895 C 3790 3916 3920 3989 3982 4059 C 4044 4126 4063 4182 4053 4257 C 4047 4303 4030 4312 4008 4281 z" stroke-linecap="round" />
</g>
		<g transform="matrix(0.13 0 0 -0.13 151.78 68.97)" id="rsi7btW10xY1RNO7RZPyA"  >
<path style="stroke: none; stroke-width: 1; stroke-dasharray: none; stroke-linecap: butt; stroke-dashoffset: 0; stroke-linejoin: miter; stroke-miterlimit: 4; fill: rgb(0,0,0); fill-rule: nonzero; opacity: 1;" vector-effect="non-scaling-stroke"  transform=" translate(-3698.33, -2042.74)" d="M 3023 2673 C 2999 2671 2980 2665 2980 2659 C 2980 2654 2971 2650 2959 2650 C 2948 2650 2907 2641 2869 2629 C 2818 2613 2800 2604 2800 2590 C 2800 2576 2812 2572 2861 2566 C 2895 2563 2943 2560 2966 2560 C 2990 2560 3010 2556 3010 2551 C 3010 2546 3035 2539 3065 2535 C 3152 2525 3302 2477 3329 2452 C 3336 2445 3364 2428 3390 2415 C 3416 2402 3450 2381 3466 2368 C 3510 2332 3660 2179 3660 2170 C 3660 2165 3676 2144 3695 2123 C 3714 2102 3730 2080 3730 2075 C 3730 2069 3744 2048 3760 2028 C 3796 1984 3860 1891 3860 1881 C 3860 1878 3872 1864 3886 1851 C 3900 1838 3920 1810 3930 1790 C 3940 1770 3956 1747 3966 1739 C 3975 1732 3994 1707 4008 1685 C 4039 1637 4149 1520 4164 1520 C 4170 1520 4180 1512 4187 1502 C 4203 1475 4304 1410 4329 1410 C 4368 1410 4361 1431 4300 1496 C 4267 1532 4227 1580 4212 1603 C 4197 1626 4182 1647 4179 1650 C 4168 1659 4138 1722 4143 1726 C 4149 1733 4294 1707 4301 1698 C 4304 1694 4357 1689 4420 1688 C 4504 1686 4534 1688 4537 1698 C 4540 1704 4547 1710 4554 1710 C 4561 1710 4575 1716 4586 1724 C 4604 1738 4603 1741 4553 1787 C 4525 1813 4473 1860 4439 1890 C 4404 1920 4355 1964 4330 1987 C 4283 2029 4217 2088 4114 2176 C 4082 2204 4028 2251 3995 2280 C 3962 2309 3924 2339 3910 2348 C 3896 2357 3880 2369 3875 2375 C 3869 2382 3838 2404 3805 2425 C 3772 2446 3743 2467 3740 2471 C 3737 2475 3697 2497 3650 2521 C 3603 2545 3563 2567 3560 2571 C 3552 2581 3375 2639 3327 2646 C 3304 2650 3282 2657 3279 2661 C 3273 2671 3085 2680 3023 2673 z" stroke-linecap="round" />
</g>
		<g transform="matrix(0.13 0 0 -0.13 80.83 73.47)" id="YYtL-J-b_KZTgmlUlWJm8"  >
<path style="stroke: none; stroke-width: 1; stroke-dasharray: none; stroke-linecap: butt; stroke-dashoffset: 0; stroke-linejoin: miter; stroke-miterlimit: 4; fill: rgb(0,0,0); fill-rule: nonzero; opacity: 1;" vector-effect="non-scaling-stroke"  transform=" translate(-3166.24, -2009)" d="M 2796 2437 C 2750 2423 2740 2406 2769 2391 C 2780 2385 2794 2374 2802 2368 C 2809 2361 2841 2338 2872 2317 C 2945 2267 3054 2158 3088 2100 C 3102 2075 3117 2053 3121 2050 C 3141 2035 3163 1938 3163 1860 C 3163 1781 3139 1653 3122 1640 C 3111 1632 3089 1578 3094 1573 C 3103 1563 3162 1582 3180 1600 C 3191 1611 3214 1627 3232 1636 C 3287 1664 3422 1772 3476 1830 C 3579 1941 3604 2022 3557 2091 C 3526 2135 3351 2310 3337 2310 C 3334 2310 3311 2324 3287 2340 C 3262 2357 3237 2370 3231 2370 C 3225 2370 3220 2374 3220 2380 C 3220 2385 3183 2401 3138 2415 C 3039 2447 2861 2458 2796 2437 z" stroke-linecap="round" />
</g>
</g>
</g>
</svg>